<svg width="32" height="32" viewBox="0 0 32 32" fill="none" xmlns="http://www.w3.org/2000/svg">
<path d="M18.187 3.1557L22.7709 6.97565C23.4106 7.50871 23.4106 8.49118 22.7709 9.02424L18.1869 12.8442C17.3185 13.5679 16 12.9503 16 11.8199V9.33328C11.5818 9.33328 8.00004 12.915 8.00004 17.3333C8.00004 21.7516 11.5818 25.3333 16 25.3333C19.6221 25.3333 22.6852 22.9251 23.6689 19.6196C23.879 18.9138 24.6214 18.512 25.3272 18.722C26.033 18.9321 26.4349 19.6745 26.2248 20.3803C24.9138 24.7854 20.834 27.9999 16 27.9999C10.109 27.9999 5.33337 23.2243 5.33337 17.3333C5.33337 11.4422 10.109 6.66661 16 6.66661V4.18C16 3.04955 17.3185 2.43201 18.187 3.1557Z" fill="#9FB8C6"/>
</svg>
