<svg width="192" height="24" viewBox="0 0 192 24" fill="none" xmlns="http://www.w3.org/2000/svg">
<path d="M48.4679 8.35199C49.0199 4.58399 46.8599 1.54799 40.6679 1.54799H31.4759C30.0479 1.54799 28.7039 2.72399 28.4999 4.15199L26.0399 20.976C25.8359 22.404 26.8319 23.58 28.2599 23.58C29.6879 23.58 31.0319 22.404 31.2359 20.976L32.0999 15.084H38.1719L41.0999 22.368C41.3879 23.1 42.0119 23.58 43.1279 23.58C44.5559 23.58 45.7199 22.5 45.8999 21.192C45.9599 20.76 45.8999 20.328 45.7319 19.98L43.4759 14.34C46.4999 13.212 48.0839 11.004 48.4679 8.35199ZM43.3559 8.30399C43.1759 9.51599 42.1199 10.86 40.0799 10.86H32.7119L33.4559 5.78399H40.8239C42.8639 5.78399 43.5359 7.07999 43.3559 8.30399ZM64.0319 2.59199C63.6839 1.72799 63.1919 1.19999 62.0639 1.19999C60.9359 1.19999 60.2519 1.71599 59.6879 2.59199L48.4439 20.196C48.2639 20.496 48.0719 20.94 48.0239 21.276C47.8319 22.572 48.6839 23.58 50.1119 23.58C51.2399 23.58 51.9839 22.968 52.5479 22.068L54.8399 18.516H64.1999L65.4599 22.068C65.7599 22.98 66.3239 23.58 67.4519 23.58C68.8799 23.58 70.0199 22.584 70.2119 21.276C70.2599 20.928 70.1999 20.496 70.1159 20.196L64.0319 2.59199ZM57.1679 14.556L61.1159 7.75199L63.0239 14.556H57.1679ZM90.3359 3.75599C90.5159 2.54399 89.6639 1.54799 88.4519 1.54799H71.7119C70.4999 1.54799 69.3599 2.54399 69.1799 3.75599C68.9999 4.96799 69.8519 5.96399 71.0639 5.96399H76.8359L74.6399 20.964C74.4359 22.392 75.4319 23.568 76.8599 23.568C78.2879 23.568 79.6319 22.392 79.8359 20.964L82.0319 5.96399H87.8039C89.0159 5.96399 90.1559 4.96799 90.3359 3.75599ZM100.152 2.57999C99.8039 1.71599 99.3119 1.18799 98.1839 1.18799C97.0559 1.18799 96.3719 1.70399 95.8079 2.57999L84.5639 20.184C84.3839 20.484 84.1919 20.928 84.1439 21.264C83.9519 22.56 84.8039 23.568 86.2319 23.568C87.3599 23.568 88.1039 22.956 88.6679 22.056L90.9599 18.504H100.32L101.58 22.056C101.88 22.968 102.444 23.568 103.572 23.568C105 23.568 106.14 22.572 106.332 21.264C106.38 20.916 106.32 20.484 106.236 20.184L100.14 2.57999H100.152ZM93.2879 14.544L97.2359 7.73999L99.1439 14.544H93.2879ZM124.8 1.54799H108.06C106.848 1.54799 105.708 2.54399 105.528 3.75599C105.348 4.96799 106.2 5.96399 107.412 5.96399H113.172L110.976 20.964C110.772 22.392 111.768 23.568 113.196 23.568C114.624 23.568 115.968 22.392 116.184 20.964L118.38 5.96399H124.14C125.352 5.96399 126.492 4.96799 126.672 3.75599C126.852 2.54399 126 1.54799 124.788 1.54799H124.8ZM146.052 1.19999C145.056 1.19999 144.48 1.54799 143.868 2.19599L136.716 9.87599L131.808 2.19599C131.46 1.63199 130.908 1.19999 129.912 1.19999C128.436 1.19999 127.392 2.14799 127.2 3.40799C127.116 4.01999 127.272 4.40399 127.62 4.96799L133.464 14.244L132.48 20.964C132.276 22.392 133.272 23.568 134.7 23.568C136.128 23.568 137.472 22.392 137.676 20.964L138.66 14.244L147.216 4.96799C147.732 4.40399 148.008 4.00799 148.092 3.40799C148.272 2.14799 147.504 1.19999 146.028 1.19999H146.052ZM161.592 1.54799H152.832C151.404 1.54799 150.06 2.72399 149.856 4.15199L147.396 20.976C147.192 22.404 148.188 23.58 149.616 23.58C151.044 23.58 152.388 22.404 152.604 20.976L153.456 15.168H159.612C165.816 15.168 168.852 12.18 169.404 8.39999C169.956 4.63199 167.808 1.54799 161.604 1.54799H161.592ZM164.196 8.35199C164.016 9.56399 162.96 10.872 160.92 10.872H154.068L154.8 5.84399H161.652C163.692 5.84399 164.364 7.13999 164.184 8.36399L164.196 8.35199ZM188.052 1.54799H175.176C173.748 1.54799 172.404 2.72399 172.188 4.15199L169.776 20.628C169.572 22.056 170.568 23.232 171.996 23.232H185.388C186.6 23.232 187.74 22.236 187.92 21.024C188.1 19.812 187.248 18.816 186.036 18.816H175.236L175.872 14.436H181.812C183.024 14.436 184.164 13.44 184.344 12.228C184.524 11.016 183.672 10.02 182.46 10.02H176.52L177.108 5.98799H187.38C188.592 5.98799 189.732 4.99199 189.912 3.77999C190.092 2.56799 189.24 1.57199 188.028 1.57199L188.052 1.54799Z" fill="white"/>
<path fill-rule="evenodd" clip-rule="evenodd" d="M22.068 1.5H4.896C3.708 1.5 2.592 2.472 2.424 3.66C2.244 4.848 3.072 5.82 4.26 5.82H21.444C22.632 5.82 23.736 4.86 23.916 3.66C24.096 2.472 23.268 1.5 22.08 1.5H22.068ZM20.7 10.884H12.78C11.592 10.884 10.488 11.844 10.308 13.044C10.14 14.232 10.956 15.204 12.144 15.204H20.064C21.252 15.204 22.356 14.244 22.536 13.044C22.704 11.856 21.888 10.884 20.7 10.884Z" fill="#73EFFF"/>
</svg>
